# xmcd
#
# Track frame offsets: 
#        150
#        23342
#        38979
#        61479
#        88077
#        106517
#        127802
#        143715
#        164098
#        183566
#        201921
#        228893
#        240843
#        266275
#        290745
#        305960
#        332230
#
# Disc length: 4778 seconds
#
# Revision: 0
# Processed by: cddbd v1.5.2PL0 Copyright (c) Steve Scherf et al.
# Submitted via: ExactAudioCopy v1.3
#
DISCID=eb12a811
DTITLE=Various Artist - Blues - Golden Age '60s -'70s  vol.01  CD1
DYEAR=2017
DGENRE=Rock
TTITLE0=Bad Company (1977) - Burnin' Sky
TTITLE1=Grand Funk Railroad (1970) - Aimless Lady
TTITLE2=Geordie (1974) - House Of The Rising Sun
TTITLE3=Budgie (1975) - I Can't See My Feelings
TTITLE4=Deep Purple (1971) - Strange Kind of Woman
TTITLE5=Lynyrd Skynyrd (1974) - Sweet Home Alabama
TTITLE6=Jimi Hendrix (1967) - Hey Joe
TTITLE7=Joe Cocker (1972) - Woman to Woman
TTITLE8=Warhorse (1971) - Red Sea
TTITLE9=The Doors (1970) - Roadhouse Blues
TTITLE10=Nazareth (1975) - Changin' Times
TTITLE11=Led Zeppelin (1969) - Living Loving Maid (She's Just A Woman)
TTITLE12=Cactus (1971) - Feel So Bad
TTITLE13=Dr. Feelgood (1978) - Night Time
TTITLE14=Creedence Clearwater Revival (1969) - Sinister Purpose
TTITLE15=Rod Stewart (1971) - Maggie May
TTITLE16=Free (1971) - Be My Friend
EXTD=
EXTT0=
EXTT1=
EXTT2=
EXTT3=
EXTT4=
EXTT5=
EXTT6=
EXTT7=
EXTT8=
EXTT9=
EXTT10=
EXTT11=
EXTT12=
EXTT13=
EXTT14=
EXTT15=
EXTT16=
PLAYORDER=
